<svg xmlns="http://www.w3.org/2000/svg" viewBox="0 0 608.84 653.61"><defs><style>.cls-1{fill:#2c3242;}</style></defs><title>crane</title><g id="Layer_2" data-name="Layer 2"><g id="work"><line class="cls-1" x1="133.84" y1="47.18" y2="145"/><line class="cls-1" x1="188.37" y1="47.18" x2="563.46" y2="145"/><line class="cls-1" x1="179.14" y1="94.42" x2="563.46" y2="145"/><polygon class="cls-1" points="0 145 26.85 176.77 53.7 145 0 145"/><polygon class="cls-1" points="53.7 145 80.55 176.77 107.41 145 53.7 145"/><polygon class="cls-1" points="107.41 145 134.26 176.77 161.11 145 107.41 145"/><polygon class="cls-1" points="161.11 145 187.96 176.77 214.81 145 161.11 145"/><polygon class="cls-1" points="214.81 145 241.66 176.77 268.51 145 214.81 145"/><polygon class="cls-1" points="268.51 145 295.37 176.77 322.21 145 268.51 145"/><polygon class="cls-1" points="322.21 145 349.07 176.77 375.92 145 322.21 145"/><polygon class="cls-1" points="375.92 145 402.77 176.77 429.62 145 375.92 145"/><polygon class="cls-1" points="429.62 145 456.47 176.77 483.32 145 429.62 145"/><line class="cls-1" x1="26.85" y1="145" x2="26.85" y2="176.77"/><line class="cls-1" x1="80.55" y1="145" x2="80.55" y2="176.77"/><line class="cls-1" x1="134.25" y1="145" x2="134.25" y2="176.77"/><line class="cls-1" x1="187.95" y1="145" x2="187.95" y2="176.77"/><line class="cls-1" x1="241.66" y1="145" x2="241.66" y2="176.77"/><line class="cls-1" x1="295.36" y1="145" x2="295.36" y2="176.77"/><line class="cls-1" x1="349.06" y1="145" x2="349.06" y2="176.77"/><line class="cls-1" x1="402.76" y1="145" x2="402.76" y2="176.77"/><line class="cls-1" x1="456.47" y1="145" x2="456.47" y2="176.77"/><polygon class="cls-1" points="482.47 145 509.31 176.77 536.17 145 482.47 145"/><line class="cls-1" x1="509.31" y1="145" x2="509.31" y2="176.77"/><polygon class="cls-1" points="535.31 145 562.16 176.77 589.01 145 535.31 145"/><line class="cls-1" x1="562.15" y1="145" x2="562.15" y2="176.77"/><rect class="cls-1" y="145" width="608.84" height="32.18"/><polygon class="cls-1" points="188.37 0 134.54 32.24 188.37 64.48 188.37 0"/><polygon class="cls-1" points="188.37 64.48 134.54 96.73 188.37 128.97 188.37 64.48"/><polygon class="cls-1" points="188.37 193.46 134.54 225.7 188.37 257.94 188.37 193.46"/><polygon class="cls-1" points="188.37 257.94 134.54 290.19 188.37 322.43 188.37 257.94"/><polygon class="cls-1" points="188.37 322.43 134.54 354.67 188.37 386.92 188.37 322.43"/><polygon class="cls-1" points="188.37 386.92 134.54 419.16 188.37 451.4 188.37 386.92"/><polygon class="cls-1" points="188.37 451.4 134.54 483.64 188.37 515.89 188.37 451.4"/><polygon class="cls-1" points="188.37 515.89 134.54 548.13 188.37 580.37 188.37 515.89"/><line class="cls-1" x1="188.37" y1="32.24" x2="134.54" y2="32.24"/><line class="cls-1" x1="188.37" y1="96.73" x2="134.54" y2="96.73"/><line class="cls-1" x1="188.37" y1="225.7" x2="134.54" y2="225.7"/><line class="cls-1" x1="188.37" y1="290.18" x2="134.54" y2="290.18"/><line class="cls-1" x1="188.37" y1="354.67" x2="134.54" y2="354.67"/><line class="cls-1" x1="188.37" y1="419.15" x2="134.54" y2="419.15"/><line class="cls-1" x1="188.37" y1="483.64" x2="134.54" y2="483.64"/><line class="cls-1" x1="188.37" y1="548.12" x2="134.54" y2="548.12"/><rect class="cls-1" x="133.84" width="54.53" height="580.37"/><polygon class="cls-1" points="77.03 653.61 119.07 580.8 203.15 580.8 245.19 653.61 77.03 653.61"/><polygon class="cls-1" points="203.15 580.8 194.17 580.8 236.21 653.61 245.19 653.61 203.15 580.8"/><path class="cls-1" d="M585.75,200.37a23.6,23.6,0,1,1-23.6-23.6A23.6,23.6,0,0,1,585.75,200.37Z"/><path class="cls-1" d="M577.66,200.37a15.51,15.51,0,1,1-15.51-15.51A15.51,15.51,0,0,1,577.66,200.37Z"/><path class="cls-1" d="M571.91,200.37a9.76,9.76,0,1,1-9.76-9.76A9.75,9.75,0,0,1,571.91,200.37Z"/><rect class="cls-1" x="2.57" y="176.77" width="77.65" height="60.88"/><line class="cls-1" x1="562.15" y1="223.97" x2="562.15" y2="296"/></g></g></svg>