<?xml version="1.0" encoding="UTF-8" standalone="no"?>
<!-- Created with Inkscape (http://www.inkscape.org/) -->

<svg
   xmlns:dc="http://purl.org/dc/elements/1.1/"
   xmlns:cc="http://creativecommons.org/ns#"
   xmlns:rdf="http://www.w3.org/1999/02/22-rdf-syntax-ns#"
   xmlns:svg="http://www.w3.org/2000/svg"
   xmlns="http://www.w3.org/2000/svg"
   xmlns:xlink="http://www.w3.org/1999/xlink"
   xmlns:sodipodi="http://sodipodi.sourceforge.net/DTD/sodipodi-0.dtd"
   xmlns:inkscape="http://www.inkscape.org/namespaces/inkscape"
   id="svg925"
   version="1.1"
   viewBox="0 0 254.00001 63.5"
   height="240"
   width="960"
   inkscape:version="0.92.4 (5da689c313, 2019-01-14)"
   sodipodi:docname="logo_name.svg">
  <defs
     id="defs919">
    <linearGradient
       inkscape:collect="always"
       id="linearGradient972">
      <stop
         style="stop-color:#dd9dd6;stop-opacity:0.93333334"
         offset="0"
         id="stop968" />
      <stop
         style="stop-color:#ffffff;stop-opacity:0.93333334"
         offset="1"
         id="stop970" />
    </linearGradient>
    <linearGradient
       id="linearGradient958"
       inkscape:collect="always">
      <stop
         id="stop954"
         offset="0"
         style="stop-color:#dd9dd6;stop-opacity:0.93333334" />
      <stop
         id="stop956"
         offset="1"
         style="stop-color:#ffffff;stop-opacity:0" />
    </linearGradient>
    <linearGradient
       inkscape:collect="always"
       id="logo-gradient">
      <stop
         style="stop-color:#dd9dd6;stop-opacity:0.93333334"
         offset="0"
         id="stop871" />
      <stop
         style="stop-color:#ffffff;stop-opacity:0"
         offset="1"
         id="stop873" />
    </linearGradient>
    <linearGradient
       inkscape:collect="always"
       xlink:href="#logo-gradient"
       id="linearGradient881"
       gradientUnits="userSpaceOnUse"
       x1="31.497135"
       y1="37.527405"
       x2="31.497135"
       y2="10.533185" />
    <linearGradient
       gradientTransform="translate(49.331208,-0.03481522)"
       inkscape:collect="always"
       xlink:href="#linearGradient958"
       id="linearGradient881-2"
       gradientUnits="userSpaceOnUse"
       x1="31.497135"
       y1="37.527405"
       x2="31.497135"
       y2="10.533185" />
    <linearGradient
       inkscape:collect="always"
       xlink:href="#linearGradient972"
       id="linearGradient966"
       x1="105.67341"
       y1="31.93306"
       x2="193.01152"
       y2="31.93306"
       gradientUnits="userSpaceOnUse" />
  </defs>
  <sodipodi:namedview
     id="base"
     pagecolor="#ffffff"
     bordercolor="#666666"
     borderopacity="1.0"
     inkscape:pageopacity="0.0"
     inkscape:pageshadow="2"
     inkscape:zoom="1.4"
     inkscape:cx="486.91307"
     inkscape:cy="-2.57037"
     inkscape:document-units="mm"
     inkscape:current-layer="layer4"
     showgrid="false"
     units="px"
     inkscape:pagecheckerboard="true"
     inkscape:window-width="1920"
     inkscape:window-height="1057"
     inkscape:window-x="2992"
     inkscape:window-y="410"
     inkscape:window-maximized="1" />
  <metadata
     id="metadata922">
    <rdf:RDF>
      <cc:Work
         rdf:about="">
        <dc:format>image/svg+xml</dc:format>
        <dc:type
           rdf:resource="http://purl.org/dc/dcmitype/StillImage" />
        <dc:title></dc:title>
      </cc:Work>
    </rdf:RDF>
    <rdf:RDF>
      <cc:Work
         rdf:about="">
        <dc:title />
      </cc:Work>
    </rdf:RDF>
  </metadata>
  <g
     inkscape:label="background"
     inkscape:groupmode="layer"
     id="layer1"
     transform="translate(0,-233.49998)"
     sodipodi:insensitive="true" />
  <g
     inkscape:groupmode="layer"
     id="layer3"
     inkscape:label="first_name"
     style="display:inline">
    <path
       inkscape:connector-curvature="0"
       id="path823"
       style="font-style:normal;font-variant:normal;font-weight:normal;font-stretch:normal;font-size:37.49086761px;line-height:1.25;font-family:'Days One';-inkscape-font-specification:'Days One, Normal';font-variant-ligatures:normal;font-variant-caps:normal;font-variant-numeric:normal;font-feature-settings:normal;text-align:start;letter-spacing:0px;word-spacing:0px;writing-mode:lr-tb;text-anchor:start;fill:#dd9dd6;fill-opacity:0.93333333;stroke:none;stroke-width:0.9372977"
       d="m 10.774648,39.548393 3.075423,0.329509 h 1.318038 q 2.544546,0 3.679524,-1.043447 1.153283,-1.043447 1.153283,-3.514769 V 20.546674 q 0,-0.713938 0.494264,-1.226508 0.512571,-0.512571 1.226508,-0.512571 h 3.404933 q 0.750549,0 1.26312,0.512571 0.51257,0.51257 0.51257,1.226508 v 14.718094 q 0,4.686359 -3.112035,7.249211 -3.112035,2.544546 -8.439106,2.544546 h -5.180623 q -0.7139374,0 -1.2265079,-0.494264 Q 8.4497747,44.05169 8.4497747,43.337753 v -2.068588 q 0,-0.713937 0.4759583,-1.208202 0.4942644,-0.51257 1.244814,-0.51257 z" />
    <path
       id="path825"
       style="font-style:normal;font-variant:normal;font-weight:normal;font-stretch:normal;font-size:37.49086761px;line-height:1.25;font-family:'Days One';-inkscape-font-specification:'Days One, Normal';font-variant-ligatures:normal;font-variant-caps:normal;font-variant-numeric:normal;font-feature-settings:normal;text-align:start;letter-spacing:0px;word-spacing:0px;writing-mode:lr-tb;text-anchor:start;opacity:1;fill:url(#linearGradient881-2);fill-opacity:1;stroke:none;stroke-width:0.9372977"
       d="M 31.497136,43.941854 V 26.569377 c 0,-0.32951 0.103735,-0.597999 0.311204,-0.805468 0.219673,-0.207469 0.488162,-0.311204 0.805467,-0.311204 h 4.100564 c 0.329509,0 0.597999,0.109837 0.805468,0.32951 0.207469,0.207469 0.311203,0.469856 0.311203,0.787162 v 17.372477 c 0,0.329509 -0.109836,0.597999 -0.329509,0.805468 -0.207469,0.207469 -0.469857,0.311203 -0.787162,0.311203 h -4.100564 c -0.329509,0 -0.597998,-0.103734 -0.805467,-0.311203 -0.207469,-0.207469 -0.311204,-0.475959 -0.311204,-0.805468 z"
       inkscape:connector-curvature="0"
       sodipodi:nodetypes="sscsscsscssss" />
    <path
       inkscape:connector-curvature="0"
       id="path827"
       style="font-style:normal;font-variant:normal;font-weight:normal;font-stretch:normal;font-size:37.49086761px;line-height:1.25;font-family:'Days One';-inkscape-font-specification:'Days One, Normal';font-variant-ligatures:normal;font-variant-caps:normal;font-variant-numeric:normal;font-feature-settings:normal;text-align:start;letter-spacing:0px;word-spacing:0px;writing-mode:lr-tb;text-anchor:start;fill:#dd9dd6;fill-opacity:0.93333333;stroke:none;stroke-width:0.9372977"
       d="M 42.773692,43.301141 V 20.583286 q 0,-0.75055 0.494264,-1.26312 0.494264,-0.512571 1.208202,-0.512571 h 7.450577 q 0.713938,0 1.354651,0.512571 0.640713,0.51257 0.860386,1.226508 l 5.400296,15.633399 5.400296,-15.633399 q 0.219673,-0.713938 0.860386,-1.226508 0.640713,-0.512571 1.35465,-0.512571 h 7.450578 q 0.713937,0 1.189896,0.512571 0.494264,0.51257 0.494264,1.26312 v 22.717855 q 0,0.750549 -0.51257,1.26312 -0.494265,0.494264 -1.208202,0.494264 H 71.27627 q -0.713937,0 -1.226508,-0.494264 -0.494264,-0.512571 -0.494264,-1.26312 V 25.416093 l -6.462049,17.994884 q -0.256285,0.677325 -0.896998,1.17159 -0.640713,0.475958 -1.354651,0.475958 h -2.61777 q -0.713938,0 -1.354651,-0.475958 -0.622407,-0.494265 -0.896998,-1.17159 L 49.528638,25.416093 v 17.885048 q 0,0.750549 -0.512571,1.26312 -0.494264,0.494264 -1.208201,0.494264 H 44.51277 q -0.713938,0 -1.226508,-0.494264 -0.51257,-0.512571 -0.51257,-1.26312 z" />
    <path
       id="path825-19"
       style="font-style:normal;font-variant:normal;font-weight:normal;font-stretch:normal;font-size:37.49086761px;line-height:1.25;font-family:'Days One';-inkscape-font-specification:'Days One, Normal';font-variant-ligatures:normal;font-variant-caps:normal;font-variant-numeric:normal;font-feature-settings:normal;text-align:start;letter-spacing:0px;word-spacing:0px;writing-mode:lr-tb;text-anchor:start;opacity:1;fill:url(#linearGradient881-2);fill-opacity:1;stroke:none;stroke-width:0.9372977"
       d="M 80.828343,43.907038 V 26.534561 c 0,-0.32951 0.103735,-0.597998 0.311204,-0.805467 0.219673,-0.20747 0.488162,-0.311204 0.805467,-0.311204 h 4.100564 c 0.329509,0 0.597999,0.109837 0.805468,0.32951 0.207469,0.207469 0.311203,0.469856 0.311203,0.787161 v 17.372477 c 0,0.329509 -0.109836,0.597999 -0.329509,0.805468 -0.207469,0.207469 -0.469857,0.311203 -0.787162,0.311203 h -4.100564 c -0.329509,0 -0.597998,-0.103734 -0.805467,-0.311203 -0.207469,-0.207469 -0.311204,-0.475959 -0.311204,-0.805468 z"
       inkscape:connector-curvature="0"
       sodipodi:nodetypes="sscsscsscssss" />
  </g>
  <g
     inkscape:groupmode="layer"
     id="layer4"
     inkscape:label="first_name_dots">
    <path
       id="path825-1"
       style="font-style:normal;font-variant:normal;font-weight:normal;font-stretch:normal;font-size:37.49086761px;line-height:1.25;font-family:'Days One';-inkscape-font-specification:'Days One, Normal';font-variant-ligatures:normal;font-variant-caps:normal;font-variant-numeric:normal;font-feature-settings:normal;text-align:start;letter-spacing:0px;word-spacing:0px;writing-mode:lr-tb;text-anchor:start;display:inline;fill:#dd9dd6;fill-opacity:0.93333333;stroke:none;stroke-width:0.9372977"
       d="m 31.426,41.830405 v -0.622407 c 0,-0.646815 0.183061,-1.159386 0.549182,-1.537712 0.378326,-0.378325 0.896999,-0.567488 1.556018,-0.567488 h 2.269955 c 0.646815,0 1.159385,0.189163 1.537711,0.567488 0.378326,0.366122 0.56749,0.878693 0.56749,1.537712 v 0.622407 c 0,0.646815 -0.189164,1.159385 -0.56749,1.537711 -0.366122,0.378326 -0.878691,0.567489 -1.537711,0.567489 H 33.5312 c -0.646815,0 -1.159386,-0.189163 -1.537712,-0.567489 C 31.615163,42.98979 31.426,42.47722 31.426,41.830405 Z"
       inkscape:connector-curvature="0"
       sodipodi:nodetypes="sscsscsscssss" />
    <path
       id="path825-1-9"
       style="font-style:normal;font-variant:normal;font-weight:normal;font-stretch:normal;font-size:37.49086761px;line-height:1.25;font-family:'Days One';-inkscape-font-specification:'Days One, Normal';font-variant-ligatures:normal;font-variant-caps:normal;font-variant-numeric:normal;font-feature-settings:normal;text-align:start;letter-spacing:0px;word-spacing:0px;writing-mode:lr-tb;text-anchor:start;display:inline;fill:#dd9dd6;fill-opacity:0.93333333;stroke:none;stroke-width:0.9372977"
       d="m 80.757208,41.795589 v -0.622407 c 0,-0.646815 0.18306,-1.159386 0.549182,-1.537712 0.378325,-0.378325 0.896999,-0.567488 1.556018,-0.567488 h 2.269955 c 0.646814,0 1.159386,0.189163 1.537711,0.567488 0.378325,0.366122 0.567489,0.878693 0.567489,1.537712 v 0.622407 c 0,0.646815 -0.189164,1.159386 -0.567489,1.537711 -0.366123,0.378327 -0.878692,0.567489 -1.537711,0.567489 h -2.269955 c -0.646817,0 -1.159386,-0.189162 -1.537714,-0.567489 -0.378322,-0.378325 -0.567486,-0.890896 -0.567486,-1.537711 z"
       inkscape:connector-curvature="0"
       sodipodi:nodetypes="sscsscsscssss" />
  </g>
  <g
     inkscape:groupmode="layer"
     id="layer2"
     inkscape:label="last_name"
     style="display:inline">
    <g
       transform="translate(0.15885521,-0.034816)"
       id="g915"
       style="fill:url(#linearGradient966);fill-opacity:1">
      <path
         d="m 105.67341,43.301141 v -22.79108 q 0,-0.713937 0.51257,-1.208201 0.51257,-0.494265 1.22651,-0.494265 h 21.10692 q 0.71394,0 1.2082,0.512571 0.51257,0.51257 0.51257,1.226508 v 1.720772 q 0,0.713937 -0.51257,1.226508 -0.49426,0.494264 -1.2082,0.494264 h -15.9446 v 6.443743 h 12.97901 q 0.71394,0 1.2082,0.51257 0.51257,0.512571 0.51257,1.208202 v 1.739079 q 0,0.713937 -0.51257,1.226507 -0.49426,0.494265 -1.2082,0.494265 h -12.97901 v 7.688557 q 0,0.750549 -0.51257,1.26312 -0.49427,0.494264 -1.20821,0.494264 h -3.44154 q -0.71394,0 -1.22651,-0.494264 -0.51257,-0.512571 -0.51257,-1.26312 z"
         style="font-style:normal;font-variant:normal;font-weight:normal;font-stretch:normal;font-size:37.49086761px;line-height:1.25;font-family:'Days One';-inkscape-font-specification:'Days One, Normal';font-variant-ligatures:normal;font-variant-caps:normal;font-variant-numeric:normal;font-feature-settings:normal;text-align:start;letter-spacing:0px;word-spacing:0px;writing-mode:lr-tb;text-anchor:start;fill:url(#linearGradient966);fill-opacity:1;stroke:none;stroke-width:0.9372977"
         id="path831"
         inkscape:connector-curvature="0" />
      <path
         d="M 133.20577,43.374365 V 20.583286 q 0,-0.75055 0.51257,-1.26312 0.51257,-0.512571 1.22651,-0.512571 h 3.44154 q 0.71394,0 1.2082,0.512571 0.51257,0.51257 0.51257,1.26312 v 19.294616 h 15.9446 q 0.71394,0 1.20821,0.512571 0.51257,0.51257 0.51257,1.226508 v 1.720772 q 0,0.713937 -0.51257,1.226508 -0.49427,0.494264 -1.20821,0.494264 h -21.10691 q -0.71394,0 -1.22651,-0.475958 -0.51257,-0.494265 -0.51257,-1.208202 z"
         style="font-style:normal;font-variant:normal;font-weight:normal;font-stretch:normal;font-size:37.49086761px;line-height:1.25;font-family:'Days One';-inkscape-font-specification:'Days One, Normal';font-variant-ligatures:normal;font-variant-caps:normal;font-variant-numeric:normal;font-feature-settings:normal;text-align:start;letter-spacing:0px;word-spacing:0px;writing-mode:lr-tb;text-anchor:start;fill:url(#linearGradient966);fill-opacity:1;stroke:none;stroke-width:0.9372977"
         id="path833"
         inkscape:connector-curvature="0" />
      <path
         d="m 155.72225,19.686288 q 0,-0.878693 0.95192,-0.878693 h 3.47816 q 2.06858,0 3.18526,1.739079 l 5.93117,9.134737 5.91286,-9.134737 q 1.13498,-1.739079 3.18526,-1.739079 h 3.49647 q 0.93361,0 0.93361,0.878693 0,0.402733 -0.2929,0.860386 l -9.79376,15.139134 v 7.688557 q 0,0.713937 -0.51257,1.208202 -0.49426,0.475958 -1.2082,0.475958 h -3.44154 q -0.71394,0 -1.22651,-0.475958 -0.51257,-0.494265 -0.51257,-1.208202 v -7.688557 l -9.77545,-15.139134 q -0.31121,-0.457653 -0.31121,-0.860386 z"
         style="font-style:normal;font-variant:normal;font-weight:normal;font-stretch:normal;font-size:37.49086761px;line-height:1.25;font-family:'Days One';-inkscape-font-specification:'Days One, Normal';font-variant-ligatures:normal;font-variant-caps:normal;font-variant-numeric:normal;font-feature-settings:normal;text-align:start;letter-spacing:0px;word-spacing:0px;writing-mode:lr-tb;text-anchor:start;fill:url(#linearGradient966);fill-opacity:1;stroke:none;stroke-width:0.9372977"
         id="path835"
         inkscape:connector-curvature="0" />
      <path
         d="M 185.78085,43.337753 V 20.546674 q 0,-0.713938 0.49426,-1.226508 0.49427,-0.512571 1.2082,-0.512571 h 5.38199 q 0.64072,0 1.35465,0.512571 0.71394,0.51257 1.17159,1.226508 l 11.05688,17.006355 V 20.510061 q 0,-0.713937 0.49427,-1.208201 0.51257,-0.494265 1.2265,-0.494265 h 3.14865 q 0.71394,0 1.2082,0.494265 0.51257,0.494264 0.51257,1.244814 v 22.791079 q 0,0.713937 -0.51257,1.226508 -0.49426,0.494264 -1.2082,0.494264 h -6.07762 q -0.71394,0 -1.46449,-0.494264 -0.75055,-0.512571 -1.18989,-1.226508 L 192.46257,27.63113 v 15.706623 q 0,0.713937 -0.51257,1.226508 -0.49426,0.494264 -1.2082,0.494264 h -3.22187 q -0.71394,0 -1.22651,-0.494264 -0.51257,-0.512571 -0.51257,-1.226508 z"
         style="font-style:normal;font-variant:normal;font-weight:normal;font-stretch:normal;font-size:37.49086761px;line-height:1.25;font-family:'Days One';-inkscape-font-specification:'Days One, Normal';font-variant-ligatures:normal;font-variant-caps:normal;font-variant-numeric:normal;font-feature-settings:normal;text-align:start;letter-spacing:0px;word-spacing:0px;writing-mode:lr-tb;text-anchor:start;fill:url(#linearGradient966);fill-opacity:1;stroke:none;stroke-width:0.9372977"
         id="path837"
         inkscape:connector-curvature="0" />
      <path
         d="M 218.29246,43.337753 V 20.546674 q 0,-0.713938 0.49426,-1.226508 0.49427,-0.512571 1.20821,-0.512571 h 5.38199 q 0.64071,0 1.35465,0.512571 0.71393,0.51257 1.17159,1.226508 l 11.05687,17.006355 V 20.510061 q 0,-0.713937 0.49427,-1.208201 0.51257,-0.494265 1.22651,-0.494265 h 3.14864 q 0.71394,0 1.2082,0.494265 0.51257,0.494264 0.51257,1.244814 v 22.791079 q 0,0.713937 -0.51257,1.226508 -0.49426,0.494264 -1.2082,0.494264 h -6.07762 q -0.71394,0 -1.46449,-0.494264 -0.75055,-0.512571 -1.18989,-1.226508 L 224.97418,27.63113 v 15.706623 q 0,0.713937 -0.51257,1.226508 -0.49426,0.494264 -1.2082,0.494264 h -3.22187 q -0.71394,0 -1.22651,-0.494264 -0.51257,-0.512571 -0.51257,-1.226508 z"
         style="font-style:normal;font-variant:normal;font-weight:normal;font-stretch:normal;font-size:37.49086761px;line-height:1.25;font-family:'Days One';-inkscape-font-specification:'Days One, Normal';font-variant-ligatures:normal;font-variant-caps:normal;font-variant-numeric:normal;font-feature-settings:normal;text-align:start;letter-spacing:0px;word-spacing:0px;writing-mode:lr-tb;text-anchor:start;fill:url(#linearGradient966);fill-opacity:1;stroke:none;stroke-width:0.9372977"
         id="path839"
         inkscape:connector-curvature="0" />
    </g>
  </g>
</svg>
