<svg xmlns="http://www.w3.org/2000/svg" xmlns:xlink="http://www.w3.org/1999/xlink" viewBox="0 0 289.3 437.82"><defs><style>.cls-1{isolation:isolate;}.cls-2{fill:url(#linear-gradient);}.cls-3{fill:#8c6f56;}.cls-13,.cls-4,.cls-5{fill:#a3795e;}.cls-23,.cls-4{stroke:#a3795e;}.cls-10,.cls-11,.cls-12,.cls-13,.cls-23,.cls-26,.cls-4,.cls-6,.cls-7,.cls-8,.cls-9{stroke-miterlimit:10;}.cls-6{fill:#f2f2f2;}.cls-10,.cls-11,.cls-12,.cls-13,.cls-6,.cls-7,.cls-9{stroke:#000;}.cls-7{fill:#42210b;}.cls-8{stroke:#42210b;}.cls-23,.cls-9{fill:none;}.cls-11,.cls-12,.cls-28{fill:#d39674;}.cls-11{opacity:0.07;}.cls-11,.cls-12,.cls-26,.cls-27{mix-blend-mode:difference;}.cls-12,.cls-26,.cls-27{opacity:0.49;}.cls-14{fill:url(#linear-gradient-2);}.cls-15{fill:#f29e6d;}.cls-16{fill:url(#linear-gradient-3);}.cls-17{fill:url(#linear-gradient-4);}.cls-18{fill:url(#linear-gradient-5);}.cls-19{fill:url(#linear-gradient-6);}.cls-20{fill:url(#linear-gradient-7);}.cls-21{fill:url(#linear-gradient-8);}.cls-22{fill:url(#linear-gradient-9);}.cls-24{fill:url(#linear-gradient-10);}.cls-25{fill:url(#linear-gradient-11);}.cls-26{stroke:#d39674;}.cls-29{fill:url(#linear-gradient-12);}</style></defs><title>Asset 4</title><g class="cls-1"><g id="Layer_2" data-name="Layer 2"><g id="portrait"><path class="cls-2" d="M281,292.67a11,11,0,0,1-2.29,4.26c-8.46,9.78-16.11,16.29-22.36,17.07-10-1.44-12.54-2.48-18-6l-.51-.48c-.18-.18-.34-.36-.48-.53h0l-8.5,36.5-2.59,13.71a13.9,13.9,0,0,1-.89,2.9l-.52,1.39c0,.89-.14,1.29-1,1.34h0l-29.84,1.83L107.44,370l-24.3,1.49-48.24,3-.6-.41L19.8,327.5l-.61-3.57-7.35-5.1A13.58,13.58,0,0,1,7,309.06L7.3,294s-6-30-6-32c0-1.24-1.23-8.68-.64-14.12A8.85,8.85,0,0,1,7,240.33l1.93,16.53L7.28,239l0-6-1-3-1-13c-7.89-17.74-2.39-82.89,19.06-95.48l.39-3L24.1,118l-.12-.09C5.45,104.68,10.35,79.1,43.8,38.5c.31,9.31,2.25,12.24,5,12C53.67,39.9,56,27.82,62.3,14l6.5,21.5C69.21,20.6,68.85,4,74.3,0c.81,7.9,2.49,13.54,5,17,3-.32,5.07-3.11,6-9,1.89,3.48,3.89,6.35,6.23,7.25L95.8,3.5a47,47,0,0,0,4,19l.5-12.5c6.07,3.23,11.14.46,15.5-6.5l7,10h17v8L143.3,39l32.5,18.5c2.8.57,4-.6,4-3l5,5,10-1,2.34,2.21L198.3,60a265.39,265.39,0,0,1,29,31c6.47,9.76,12.12,19.13,12,28,18.6,28.51,25.65,63.19,22,99.56,9.78-3.93,15.92,1.72,25,11.44C291.71,246.13,287.61,268.55,281,292.67Z"/><g id="Layer_11" data-name="Layer 11"><path class="cls-3" d="M260.57,218.66,243.3,234l-2,18-10,7-3-32-19-44-.27-8.07L207.3,123l-1.56-.55c-13.08-4.66-23.39-11.21-37-16.13l-1-.35c-.91-.32.32-2.34-.3-2.88a.51.51,0,0,0-.16-.09c-1-.35-2,3.34-3,3A139.3,139.3,0,0,0,127,98.91a109.83,109.83,0,0,0-11.21.08h-.6c-1.12-.3-1.73-5.12-2.87-5a1,1,0,0,0-.39.15l-.18.11-.32.23c-.78.62-1.83,1.71-2.8,2.66h0A7.44,7.44,0,0,1,106.3,99a33,33,0,0,0-10.2,3.53,45.66,45.66,0,0,0-4.77,3l-.09.06c-2.06,1.46-4.16,3.11-6.44,4.93a42.81,42.81,0,0,0-11.81-1A96.07,96.07,0,0,0,55,112c-1.74.4-3.5.83-5.28,1.31h0A207.79,207.79,0,0,0,24.3,122l.06-.48.39-3,.05-.06-.7-.48-.12-.09C5.45,104.68,10.35,79.1,43.8,38.5c.31,9.31,2.25,12.24,5,12C53.67,39.9,56,27.82,62.3,14l6.5,21.5C69.21,20.6,68.85,4,74.3,0c.81,7.9,2.49,13.54,5,17,3-.32,5.07-3.11,6-9,1.89,3.48,3.89,6.35,6.23,7.25L95.8,3.5a47,47,0,0,0,4,19l.5-12.5c6.07,3.23,11.14.46,15.5-6.5l7,10h17v8L143.3,39l32.5,18.5c2.8.57,4-.6,4-3l5,5,10-1,2.34,2.21C219,81.37,238.2,101.59,237.8,118.5,255.21,152.45,262,185.79,260.57,218.66Z"/><path class="cls-4" d="M262.56,218.89q-.12,2.58-.33,5.16a.62.62,0,0,1,0,.13c-.07,1-.16,1.94-.26,2.91h0c-.25,2.43-.55,4.86-.92,7.29a.76.76,0,0,1,0,.21c-.22,1.54-.47,3.08-.75,4.61,0,.16-.05.32-.08.48q-1.38,7.6-3.4,15.16c-.35,1.31-.71,2.62-1.09,3.93-.71,2.52-1.48,5-2.29,7.56q-1.56,4.88-3.33,9.73c-.27.76-.55,1.51-.84,2.27s-.44,1.21-.68,1.82h0c-.59,1.59-1.2,3.16-1.83,4.75l-.09.23c-.93,2.38-1.91,4.75-2.91,7.13l0,0c-.12.32-.26.65-.4,1q-.83,2-1.68,3.93-2.1,4.88-4.31,9.76h0l-8.5,36.5-2.59,13.71a14.15,14.15,0,0,1-2.44,5.63,13.73,13.73,0,0,1-2.16,2.35c-14.1,22.39-39.11,42.16-67.11,61.21-10.58,7.2-23.51,12.26-36.2,10.6-17.15-.33-30.84-4.24-41.5-7.5q-1.74-1.63-3.55-3.55a218.25,218.25,0,0,1-15.57-18.83c-3.23-4.29-6.56-8.89-10-13.69h0c-2.58-3.66-5.2-7.43-7.85-11.27-1.75-2.54-3.51-5.12-5.28-7.71L34.3,374,19.8,327.5l-.61-3.57-4.08-24.12-.86-5,0-.13-3.45-20.38v-.07l-.61-3.58a30.29,30.29,0,0,1-.42-4.25l-.07-.74v0l-.78-8.72L7.28,239l0-6-1-3-1-13c-7.89-17.74-2.39-82.89,19.06-95.48.31-.19.62-.36.94-.52l2-2a139.8,139.8,0,0,1,19-6.34q1.38-.36,2.73-.66a91.67,91.67,0,0,1,24-2.54A54.57,54.57,0,0,1,84.3,111a63.42,63.42,0,0,1,22-12,7.13,7.13,0,0,0,1.78-1.42l.07-.06a40.61,40.61,0,0,1,3.26-3l.32-.23.18-.11a1,1,0,0,1,.39-.15c1.14-.13,1.75,4.69,2.87,5h.6A109.83,109.83,0,0,1,127,98.91,139.3,139.3,0,0,1,164.3,106c1,.34,2-3.35,3-3a.51.51,0,0,1,.16.09c.61.46.82,2.23,1.27,3.23a1.14,1.14,0,0,0,.57.68c13.72,4.83,22.68,10.45,35.4,15.09l1,.36,1.56.55,3.52,52.77.48,7.23,19,44,.88,28.12.12,3.88,6.67-5.33L241.3,251l2-17,18-15C261.3,219.08,262.56,218.81,262.56,218.89Z"/><path d="M4.8,212.5c2.78-7.54,7.76-7.73,13.5-7.5l32,4,12,10h-37c-7.53,1-15.9,5-18.5,11.5Z"/><path d="M117.3,209l1,8c18.58-4.82,29.48-6.61,45.5-5.5,9.87.68,14.22-2.22,23,1l7,5-3-12c-7.09-4-14.24-10-22-10-3,0-30.22,5.25-40.5,7.5C125.74,203.56,120,207.92,117.3,209Z"/><path class="cls-5" d="M21.8,240.5c8.69-17.33,24.74-20.17,45-13l6,12c-15.4,6.56-30.38,12.56-46.5,9.5l-5-2Z"/><path class="cls-6" d="M24.3,240c15-13.72,27.42-13.62,38-4,2.6,1.37,3.08,2.71,1,4l-1,1-37,6-2-3Z"/><g id="Layer_12" data-name="Layer 12"><path class="cls-7" d="M36.3,232c-1.75,5.55-1,10.38,3,12a34.12,34.12,0,0,0,16-2c2.35-1,2.65-5.41,2-10C48.89,229.59,41.69,229.25,36.3,232Z"/><circle class="cls-8" cx="46.3" cy="236" r="3"/></g><path class="cls-5" d="M127.3,237c2-20,39.32-23.14,59-2a5.09,5.09,0,0,0,0,2c.13.54-2,1-2,1l-5,4c-11.45,6-29.43,4.23-52-3Z"/><path class="cls-6" d="M130.87,235.46c14.39-13.43,31.2-9.93,48.82-.78a1.12,1.12,0,0,1,.61,1v.16a1.19,1.19,0,0,1-1.16,1.19l-41.84,1-5.85-.73A1,1,0,0,1,130.87,235.46Z"/><path class="cls-7" d="M148.3,227c-2.28,6.15-.5,5.88,3,10h20c1.69-2.75,2.65-.92,2-5C164.9,228,156.57,225.67,148.3,227Z"/><circle class="cls-8" cx="160.3" cy="231" r="3"/><path d="M104.3,287a21.93,21.93,0,0,1,5.64-1.37,11.68,11.68,0,0,1,5.72.86,12.63,12.63,0,0,1,4.62,3.54,25,25,0,0,1,3.18,4.89h0v0a35.21,35.21,0,0,1,1.68,6.8,11.39,11.39,0,0,1-.91,7,6.73,6.73,0,0,1-2.55,2.53,10.24,10.24,0,0,1-3.38,1.14,24.06,24.06,0,0,1-7-.09h-.11l-.07-.09a6.56,6.56,0,0,0-5.66-2.47,12.41,12.41,0,0,0-5.92,2.62,44.29,44.29,0,0,0-5,4.45,17.5,17.5,0,0,1-5.83,3.53,17.19,17.19,0,0,1-3.32.84l-3.34.46c-1.12.14-2.18.32-3.36.43a8.52,8.52,0,0,1-3.46-.54,10.17,10.17,0,0,1-1.55-.77l-1.48-.82A19.72,19.72,0,0,1,69.35,318a9.46,9.46,0,0,1-3.48-5.92l.17.29a12.79,12.79,0,0,1-3.9-4.39,8.72,8.72,0,0,1-.62-5.86,18,18,0,0,1,.91-2.77l1-2.67c.62-1.8,1.29-3.58,1.86-5.39a205.59,205.59,0,0,0,6-22A215.41,215.41,0,0,0,76,224h.66c.32,10.89.49,21.83-.55,32.71a103.52,103.52,0,0,1-2.79,16.12,64.69,64.69,0,0,1-6,15.18,64.08,64.08,0,0,0,5.75-15.24,103.29,103.29,0,0,0,2.55-16.11A265.23,265.23,0,0,0,76,224h.66a216.49,216.49,0,0,1-4.43,45.48,194.45,194.45,0,0,1-6,22.11c-.58,1.81-1.27,3.6-1.9,5.4l-1,2.67a17.45,17.45,0,0,0-.89,2.64,7.78,7.78,0,0,0,.53,5.27,11.73,11.73,0,0,0,3.61,4.08l.15.11,0,.18a8.58,8.58,0,0,0,3.16,5.41,19.58,19.58,0,0,0,2.7,1.86l1.46.83a8.5,8.5,0,0,0,1.45.72,7.58,7.58,0,0,0,3.13.51c1.05-.09,2.21-.27,3.3-.41a30.43,30.43,0,0,0,6.52-1.22,17,17,0,0,0,5.61-3.36,43.31,43.31,0,0,1,5-4.48,13.17,13.17,0,0,1,6.25-2.7,6.54,6.54,0,0,1,3.43.58,8.24,8.24,0,0,1,2.73,2.13l-.18-.1a24,24,0,0,0,6.87.12,9.93,9.93,0,0,0,3.21-1.05,6.23,6.23,0,0,0,2.35-2.32,11.18,11.18,0,0,0,.93-6.65,35.82,35.82,0,0,0-1.56-6.76v0a24,24,0,0,0-3.06-4.89,12.6,12.6,0,0,0-4.49-3.54,11.47,11.47,0,0,0-5.64-.93A21.63,21.63,0,0,0,104.3,287Z"/><path class="cls-9" d="M62.3,307c.11,5.91.57,9.24,3,9h2.2c-1.48-3.39-3.51-5-5.2-7Z"/><path class="cls-10" d="M55.3,352c6.78,1.85,12.19.16,18-2a13.42,13.42,0,0,1,12,0c6.54,1.33,11.35,1.16,15,0,6.89-1.09,12.85-1.64,15,0,9.43.85,20.55-.29,33-3l-30,8-15,1h-29l-17.77-1.78A1.54,1.54,0,0,1,55.3,352Z"/><path class="cls-11" d="M88.3,330l2,12c2.87,6.11,5.57,7.22,8,0l3-12"/><polygon class="cls-12" points="82.3 365 85.3 388 88.3 386 92.3 388 96.3 388 100.3 386 104.3 388 108.3 365 102.3 366 95.3 365 88.3 366 82.3 365"/><path class="cls-13" d="M281,292.67a11,11,0,0,1-2.29,4.26c-8.46,9.78-16.11,16.29-22.36,17.07-10-1.44-12.54-2.48-18-6l-.51-.48v0c.61-1.35,1.21-2.69,1.79-4h0c.66-1.51,1.31-3,1.93-4.52v0c.27-.63.53-1.27.78-1.9q.18-.4.33-.81v0c.23-.52.43-1.06.64-1.58l.09-.23,0-.06q2.85-7.15,5.28-14.34h0c.18-.54.36-1.07.53-1.62s.46-1.4.69-2.1h0c.12-.36.23-.72.34-1.08.28-.88.55-1.77.82-2.65v0q2.06-6.72,3.67-13.48l0-.12c.11-.42.2-.85.3-1.27h0l0-.11c.06-.22.11-.43.15-.65a.24.24,0,0,0,0-.08c.16-.65.3-1.31.45-2,.41-1.84.79-3.69,1.15-5.53v-.08c.25-1.23.47-2.47.69-3.7.5-2.82,1-5.65,1.33-8.47h0l.12-.89c.17-1.3.33-2.59.47-3.88.07-.58.13-1.15.19-1.73v0c.08-.76.15-1.52.22-2.29,0-.17,0-.35.05-.52,0-.34.06-.67.08-1s.06-.56.07-.84v0c.08-.84.14-1.67.19-2.51,0-.27,0-.54.05-.81.07-.93.12-1.87.16-2.81,0-.25,0-.51,0-.76l.78-.33c9.78-3.93,15.92,1.72,25,11.44C291.71,246.13,287.61,268.55,281,292.67Z"/><path class="cls-9" d="M242.32,297c-.25.63-.51,1.27-.78,1.9v0c-.62,1.51-1.27,3-1.93,4.52h0c-.58,1.35-1.18,2.69-1.79,4v0c-.18-.18-.34-.36-.48-.53-3.44-4.22,1.32-8.6,4.31-9.76A6.15,6.15,0,0,1,242.32,297Z"/><path class="cls-9" d="M242.65,296.2c.23-.53.44-1.07.65-1.6V297a1.71,1.71,0,0,0-.82,0h0l-.12,0Q242.5,296.61,242.65,296.2Z"/><path class="cls-9" d="M260.56,218.89c0,.25,0,.51,0,.76,0,.94-.09,1.88-.16,2.81,0,.27,0,.54-.05.81-.05.84-.11,1.67-.19,2.51,0,.29,0,.57-.07.86s-.05.67-.08,1c0,.17,0,.35-.05.52-.07.78-.14,1.55-.22,2.32-.06.58-.12,1.15-.19,1.73-.14,1.29-.3,2.58-.47,3.88l-.12.9c-.38,2.82-.83,5.65-1.33,8.47-.22,1.26-.45,2.52-.7,3.78-.36,1.84-.74,3.69-1.15,5.53-.15.65-.29,1.31-.45,2a.24.24,0,0,1,0,.08c-.05.26-.11.51-.18.77-.1.44-.2.88-.31,1.32,0,0,0,0,0,0q-1.62,6.76-3.68,13.51-.57,1.89-1.17,3.78c-.23.7-.45,1.4-.69,2.1s-.35,1.09-.53,1.63q-2.43,7.18-5.28,14.34l-.12.29V259l-2-7,2-18,17-15Z"/><path class="cls-9" d="M245.3,293l2.52-3a10.6,10.6,0,0,1,6.29-3.67l3.79-.69a9.62,9.62,0,0,1,6.42,1.06l6,3.32,8-9,1-13c1-2.43.11-13.45-3-15-.26-5.15-.59-11.71-1-20-.6-1.68-2.43-2.65-7-2-9.37,1.68-13.34,10.76-15,23l3.13,6.26A9.32,9.32,0,0,1,255,270.73L248.3,278"/><path class="cls-14" d="M261.37,221.57a1.38,1.38,0,0,0-.94,2c.51.85,1.46.44,2.28.51a3.42,3.42,0,0,0-2.19,1.17c.07-.05.54-.52.57-.51.23.13.09.47-.07.68l-1.94,2.5,3.7-1a6.3,6.3,0,0,0-3.55,1.92"/><path class="cls-5" d="M261,220.12a2.9,2.9,0,0,0-1.92,4,2.51,2.51,0,0,0,1.79,1.39,16.63,16.63,0,0,0,1.87,0l-.4-2.94a4.86,4.86,0,0,0-3.08,1.86,1.48,1.48,0,0,0,.38,1.93,1.51,1.51,0,0,0,2-.12c.09-.07.16-.15.24-.22l.17-.16c.24-.23.21.07-.5.26l-1.46-.39a1.09,1.09,0,0,1-.2-1.29l-.05.08c.23-.3,0,0-.08.11l-.58.74-1.1,1.42a1.5,1.5,0,0,0,1.46,2.5l3.7-1a1.51,1.51,0,0,0,1.05-1.84,1.55,1.55,0,0,0-1.85-1,7.79,7.79,0,0,0-4.21,2.31,1.5,1.5,0,0,0,2.12,2.12,3.22,3.22,0,0,1,.69-.64c-.1.05-.17.12,0,0l.19-.14.45-.27.43-.21c.19-.09-.24.09,0,0l.22-.08a6.58,6.58,0,0,1,1-.25l-.8-2.89-3.7,1,1.46,2.51,1.24-1.59a6,6,0,0,0,1.27-1.94,1.67,1.67,0,0,0-2.15-2.07,3.89,3.89,0,0,0-1,.81l2.36,1.82c-.22.3,0,0,0,0s0,0-.06,0a1.92,1.92,0,0,0,.26-.17c.05,0,.31-.18.11-.06s.07,0,.12-.05l.25-.08.57-.14a1.5,1.5,0,0,0,1.07-1.65,1.52,1.52,0,0,0-1.47-1.3c-.35,0-.69,0-1,0h-.27c-.27,0,.28,0,.1,0s0,0,.08,0c-.26-.12.24.22,0,0l.11.14c-.06-.12-.06-.11,0,0s0,.12,0,0l0,.22a.33.33,0,0,1,0-.14q0-.16,0,.18l0-.08c.05-.15,0-.12-.05.11,0,0,.24-.29,0-.08s.07,0,.06,0c-.18.13-.22.16-.12.1a.41.41,0,0,1,.11-.07s-.37.11,0,0a1.52,1.52,0,0,0,1.05-1.84,1.53,1.53,0,0,0-1.85-1Z"/><path class="cls-15" d="M259.81,221v0l.06-.4a0,0,0,0,0,0,0l.15-.36v0l.23-.3h0l.31-.24h0l.36-.16h0l.4-.06h0l.4.06h0l.36.15h0l.3.23h0l.23.3h0l.15.35h0l.05.4h0l-.05.4h0a1.08,1.08,0,0,0,0-.59,1,1,0,0,0-.17-.56,1.13,1.13,0,0,0-.39-.42,1.05,1.05,0,0,0-.51-.27l-.4-.05a1.47,1.47,0,0,0-.76.2l-.3.23a1.45,1.45,0,0,0-.38.67,1.4,1.4,0,0,0,0,.81l.15.36h0a1.23,1.23,0,0,0,.24.31h0l.31.24a1,1,0,0,0,.37.16h0l.39.05h0l.21,0,.2,0h0a1.34,1.34,0,0,0,.37-.16s.31-.23.15-.12.11-.07.16-.12h0l.24-.31h0l.15-.36h0v0c0-.07,0-.15,0-.21s0-.13,0-.2v0a1.17,1.17,0,0,0-.12-.58,1.24,1.24,0,0,0-.31-.48,1.21,1.21,0,0,0-.49-.31,1.15,1.15,0,0,0-.58-.13l-.39.06a1.54,1.54,0,0,0-.67.38l-.23.3a1.58,1.58,0,0,0-.21.76Z"/><path class="cls-16" d="M261.06,221"/><path class="cls-5" d="M261.06,222.51a1.5,1.5,0,0,0,0-3,1.5,1.5,0,0,0,0,3Z"/><path class="cls-17" d="M261.45,220.69"/><path class="cls-5" d="M261.45,222.19a1.5,1.5,0,0,0,0-3,1.5,1.5,0,0,0,0,3Z"/><path class="cls-18" d="M261.34,223a9.22,9.22,0,0,1-.32,2.21l-.3,1.33a4.58,4.58,0,0,1-.4,1.2,3.55,3.55,0,0,0-.3.54,1.87,1.87,0,0,0-.08.67,20.6,20.6,0,0,0,.09,2.22.32.32,0,0,0,.23-.07,1.09,1.09,0,0,0-.54.45,2.68,2.68,0,0,0-.11.49c0,.17-.15.34-.32.35"/><path class="cls-5" d="M259.84,223a7,7,0,0,1-.27,1.81,19.77,19.77,0,0,1-.48,2c0,.1,0,.1,0,0a2.25,2.25,0,0,1-.12.21c-.07.13-.16.26-.22.4a3.17,3.17,0,0,0-.32,1.42,19.65,19.65,0,0,0,.09,2.3c.06.73.64,1.61,1.5,1.5a2.66,2.66,0,0,0,1-.27l-1.51-2.59a2.42,2.42,0,0,0-1,.88,2,2,0,0,0-.26.58,1.87,1.87,0,0,0,0,.25c-.06.25,0,.17.16-.22l.66-.39-.12,0a1.5,1.5,0,0,0,.8,2.89,2,2,0,0,0,1.35-1.34c0-.08.12-.35.08-.43.11.24-.6.59-.1.33a1.5,1.5,0,1,0-1.51-2.59l-.12,0,.76-.2H260l1.5,1.5c-.06-.74,0-1.48-.09-2.22,0-.22,0-.18-.06-.06a2.3,2.3,0,0,1,.23-.4,4.75,4.75,0,0,0,.46-1.17,17.66,17.66,0,0,0,.77-4.32,1.5,1.5,0,1,0-3,0Z"/><path class="cls-19" d="M258.51,234.24"/><path class="cls-5" d="M258.51,235.74a1.5,1.5,0,0,0,0-3,1.5,1.5,0,0,0,0,3Z"/><path class="cls-20" d="M253.41,265.86c0,2.14-1.32,4.06-1.66,6.17a9.05,9.05,0,0,1-.62,3c-.39.71-1.11,1.23-1.39,2-.16.46-.15,1-.27,1.43-.3,1.19-1.35,2-2,3.1a6.48,6.48,0,0,0-.76,2.59,4,4,0,0,1-.17.93,3.94,3.94,0,0,1-.41.72,12.28,12.28,0,0,0-1.23,2.32,22.41,22.41,0,0,0-.75,2.41l-1.86,6.86"/><path class="cls-5" d="M251.91,265.86a13.32,13.32,0,0,1-1.13,4c-.47,1.33-.38,2.76-.8,4.07-.38,1.15-1.48,1.83-1.78,3.06a6,6,0,0,1-.46,1.72c-.35.58-.84,1.08-1.23,1.63a8.37,8.37,0,0,0-1.25,3.63c-.22,1.31-1.28,2.5-1.78,3.76a89,89,0,0,0-2.61,9.27,1.51,1.51,0,0,0,2.9.8c.82-3.05,1.39-6.36,2.61-9.27.59-1.42,1.61-2.49,1.82-4.05a6.87,6.87,0,0,1,1.58-3.51,6,6,0,0,0,.95-1.58c.24-.61.19-1.31.45-1.91a10,10,0,0,1,1.06-1.39,4.94,4.94,0,0,0,.74-1.93,22,22,0,0,1,.9-4.08,12.79,12.79,0,0,0,1-4.25c0-1.93-3-1.93-3,0Z"/><path class="cls-21" d="M241.71,298.43a8.39,8.39,0,0,0-1.9,3.32,10.17,10.17,0,0,0-.17,1.35,13.43,13.43,0,0,1-.69,3.06"/><path class="cls-5" d="M240.65,297.37a7.73,7.73,0,0,0-2.47,5.33l-.06.55c0,.18,0,.18,0,0,0,.09,0,.19-.05.28a13,13,0,0,1-.57,2.21,1.52,1.52,0,0,0,1.05,1.84,1.54,1.54,0,0,0,1.85-1,13.7,13.7,0,0,0,.54-2.07c.08-.46.15-.92.2-1.39,0-.13,0-.27,0-.4s.08-.62,0-.28a6.45,6.45,0,0,1,.23-.89c.07-.16.06-.15,0,0a2.4,2.4,0,0,1,.11-.23c.08-.15.16-.3.25-.45a7.52,7.52,0,0,1,.5-.75c0-.05.37-.48.16-.22l.32-.4a1.54,1.54,0,0,0,0-2.12,1.51,1.51,0,0,0-2.12,0Z"/><path class="cls-22" d="M243.39,262.26c-1.67,10.36.53,18.27-.09,28.74"/><path class="cls-5" d="M241.94,261.87c-1.51,9.71.4,19.38-.14,29.13-.11,1.93,2.89,1.92,3,0,.52-9.45-1.44-18.92,0-28.34.3-1.89-2.59-2.7-2.89-.79Z"/><path class="cls-23" d="M243.76,261.46v-1.57"/><path class="cls-24" d="M253.06,263.79a12.09,12.09,0,0,1,1.17-6"/><path class="cls-5" d="M254.56,263.79a12.68,12.68,0,0,1,0-1.51,4.78,4.78,0,0,1,.08-.75l0,.19,0-.22c0-.12.05-.24.07-.37.1-.47.22-.94.37-1.41.07-.24.16-.47.25-.71,0-.09.1-.39,0,0a2,2,0,0,1,.18-.39,1.53,1.53,0,0,0-.54-2.05,1.52,1.52,0,0,0-2.05.54,13.82,13.82,0,0,0-1.38,6.72,1.5,1.5,0,0,0,3,0Z"/><path class="cls-25" d="M255.28,259.74l-.74,2.05a5.75,5.75,0,0,1,0-.83,9.19,9.19,0,0,1,.41-2.67,4.49,4.49,0,0,0,.41-1.27.34.34,0,0,0-.05-.26c-.06-.07-.19-.09-.23,0a.87.87,0,0,0,.87-.05"/><path class="cls-5" d="M253.83,259.34l-.74,2.05,3,.4a11.92,11.92,0,0,1,.12-2.23l-.05.39a5.9,5.9,0,0,1,.24-1.09c.11-.34.28-.66.38-1a2.21,2.21,0,0,0-.12-1.85,1.68,1.68,0,0,0-2.59-.31,1.5,1.5,0,0,0-.41,1.26,1.41,1.41,0,0,0,.72,1.1,2.62,2.62,0,0,0,1.2.29,2.35,2.35,0,0,0,1.18-.35,1.5,1.5,0,1,0-1.51-2.59c-.13.08-.08.06.15-.05l-.14,0,.39-.06h-.22l.4,0c-.14,0-.32-.11.06.07l.31,2.35,0,0-.66.38h0l-.4.05h.06l-.4-.05,0,0-.66-.39-.3-.5,0-.4a.89.89,0,0,1,0,.23l.06-.4a5.48,5.48,0,0,1-.37,1.1,5.51,5.51,0,0,0-.31,1.21,12.88,12.88,0,0,0-.2,2.77,1.5,1.5,0,0,0,2.94.4l.74-2.05a1.5,1.5,0,0,0-1.05-1.84,1.52,1.52,0,0,0-1.84,1Z"/><path class="cls-13" d="M19.3,324l-.11-.07-7.35-5.1A13.58,13.58,0,0,1,7,309.06L7.3,294s-6-30-6-32c0-1.24-1.23-8.68-.64-14.12A8.85,8.85,0,0,1,7,240.33l1.93,16.53L10.3,269Z"/><path class="cls-13" d="M4.3,245l-1.1,1.65A20.67,20.67,0,0,0,2.3,250l2.15-2.44L7.16,247l-.09-3Z"/><path class="cls-13" d="M9,261.82a.52.52,0,0,0-1-.32c-1.27,2.18-2.85,4.64-3.23,6.75-.71,3.86,7.53,29.2,10.52,31.75l-4-20-1-11Z"/><path d="M95.3,316a9.42,9.42,0,0,1,2.38-4.39,10.29,10.29,0,0,1,4.39-2.75,8.89,8.89,0,0,1,5.28-.05,6.51,6.51,0,0,1,4,3.19,12.4,12.4,0,0,0-8.35-.28,18.51,18.51,0,0,0-3.79,1.72C97.91,314.17,96.69,315.05,95.3,316Z"/><path d="M64.3,316a5.15,5.15,0,0,1,.88-.44,3.71,3.71,0,0,0,.66-.32.62.62,0,0,0,.32-.35,6,6,0,0,0,.14-.89,1.3,1.3,0,0,1,.64.89,1.09,1.09,0,0,1-.09.68,1.32,1.32,0,0,1-.47.52,1.8,1.8,0,0,1-1.09.24A1.92,1.92,0,0,1,64.3,316Z"/><path class="cls-12" d="M83.3,108l-11.38.08A16.35,16.35,0,0,1,65.3,98a18.09,18.09,0,0,0,0,10l-3,1c-12.9-14.74-13.79-29.41-5-44l7-11C64.88,74.59,69.51,93.59,83.3,108Z"/><path class="cls-12" d="M127,98.92,113.3,99l-2-4-5,4-11-12,.8,15.57L87.3,108c-8.24-15.38-.54-42.11,6-66C97.19,64.07,109,82.81,127,98.92Z"/><path class="cls-12" d="M117.3,48C109,62.26,113,77.17,132.3,90,124.69,80.22,118.51,68.12,117.3,48Z"/><path class="cls-12" d="M46.3,72c-11,11.77-15,26.61-13,44l18.22-5.85C43.26,104.34,41,92.16,46.3,72Z"/><line class="cls-26" x1="59.3" y1="359" x2="76.3" y2="363"/><g class="cls-27"><polyline points="117.3 363 127.3 363 141.3 356"/><path class="cls-28" d="M117.3,363c.83-.15,1.67-.23,2.5-.33s1.67-.15,2.5-.22,1.67-.13,2.5-.17l2.5-.06-.37.09c1.16-.6,2.29-1.26,3.48-1.79L134,358.8c1.19-.54,2.41-1,3.62-1.51.6-.27,1.22-.47,1.84-.7s1.23-.44,1.87-.63l0,.08c-4.66,2.35-9.3,4.73-14,7h0l-10,0Z"/></g><path class="cls-5" d="M262.54,223.14a1.5,1.5,0,0,0,0-3,1.5,1.5,0,0,0,0,3Z"/><path class="cls-12" d="M144.3,52c2.68,18,6.84,41.12,16,52l-15-3C135.33,82.32,131.65,58.88,144.3,52Z"/><path class="cls-29" d="M258.9,241.5a7.51,7.51,0,0,1-.86,3.06,15.91,15.91,0,0,0-.68,1.45,10.39,10.39,0,0,0-.44,1.85l-.67,3.83"/><path class="cls-5" d="M257.4,241.5c-.07,1.54-1.13,2.87-1.61,4.47a21.24,21.24,0,0,0-.52,2.64l-.46,2.68a1.53,1.53,0,0,0,1,1.84,1.51,1.51,0,0,0,1.85-1,46.53,46.53,0,0,1,1-5.51,6.9,6.9,0,0,1,.44-.94c.22-.44.42-.88.6-1.33a8.19,8.19,0,0,0,.62-2.81,1.5,1.5,0,0,0-3,0Z"/><path class="cls-5" d="M255.8,252.33a7.32,7.32,0,0,1-.49,1.76l.15-.36c-.09.22-.2.44-.31.66l2.79.76a13,13,0,0,1,0-2.57,1.06,1.06,0,0,0-.13-.58,1.14,1.14,0,0,0-.31-.48,1.5,1.5,0,0,0-1.06-.44,1.54,1.54,0,0,0-1.06.44l-.23.3a1.48,1.48,0,0,0-.21.76,13,13,0,0,0,0,2.57l.05.39a1.23,1.23,0,0,0,.27.52,1.46,1.46,0,0,0,.78.53,1.8,1.8,0,0,0,.8,0,1.52,1.52,0,0,0,.9-.69,8.49,8.49,0,0,0,.95-2.78,1.22,1.22,0,0,0,0-.6,1.12,1.12,0,0,0-.18-.55,1.52,1.52,0,0,0-.9-.69,1.49,1.49,0,0,0-1.15.15l-.31.23a1.54,1.54,0,0,0-.38.67Z"/><path class="cls-5" d="M261.1,237.9a3.86,3.86,0,0,0-1,.16,4,4,0,0,0-.86.41,4.1,4.1,0,0,0-.71.6,3.27,3.27,0,0,0-.53.8h2.59l0-.07.15.35a1.17,1.17,0,0,1-.05-.2l.05.4a1,1,0,0,1,0-.24l-.05.4a.77.77,0,0,1,.07-.26l-.15.35a1,1,0,0,1,.13-.23l-.23.3a1.29,1.29,0,0,1,.16-.17l-.3.24.18-.11-.35.15c.13-.05.28-.07.42-.11a2,2,0,0,0,.94-.56,2,2,0,0,0,.52-.91,2.13,2.13,0,0,0,0-1.12,1.54,1.54,0,0,0-.69-.89,1.73,1.73,0,0,0-1.16-.16,1.54,1.54,0,0,0-.89.69,1.47,1.47,0,0,0-.15,1.16.43.43,0,0,1,0,.11l0-.4v.15l0-.4a.74.74,0,0,1,0,.14l.15-.36a.53.53,0,0,1-.08.15l.23-.3-.1.1.3-.23-.11.06.36-.15-.36.09-.15,0a3.05,3.05,0,0,0-.46.2l-.24.18-.24.19a2178688660154.59,2178688660154.59,0,0,0-.38.5,2.78,2.78,0,0,0-.24.56,2.37,2.37,0,0,0-.1.64,2.26,2.26,0,0,0,.3,1.22,1.48,1.48,0,0,0,2.05.54,1.55,1.55,0,0,0,.54-.54,2.09,2.09,0,0,1,.25-.43l-.23.31a2,2,0,0,1,.38-.38l-.31.24a2.13,2.13,0,0,1,.46-.27l-.36.15a1.91,1.91,0,0,1,.52-.14l-.4,0h.15a1.59,1.59,0,0,0,1.06-.44,1.14,1.14,0,0,0,.31-.48,1.08,1.08,0,0,0,.13-.58,1.5,1.5,0,0,0-1.5-1.5Z"/><path class="cls-5" d="M258,236.48a1.5,1.5,0,0,0,0-3,1.5,1.5,0,0,0,0,3Z"/><path class="cls-5" d="M274.93,255.78a1.5,1.5,0,0,0,0-3,1.5,1.5,0,0,0,0,3Z"/><path class="cls-5" d="M274.93,255a1.5,1.5,0,0,0,0-3,1.5,1.5,0,0,0,0,3Z"/><path class="cls-5" d="M241.62,296.41a3.35,3.35,0,0,0,.18-.89.57.57,0,0,0,0-.13,3.51,3.51,0,0,0-.07-.5,2.12,2.12,0,0,0-.46-.8l-.06-.06a3.27,3.27,0,0,0-.37-.28,2.81,2.81,0,0,0-.42-.19l-.09,0a2.83,2.83,0,0,0-.42-.06h0a1.84,1.84,0,0,0-.47.06,1.76,1.76,0,0,0-.78.46,1,1,0,0,0-.31.48,1.06,1.06,0,0,0-.13.58,1.08,1.08,0,0,0,.13.58,1.14,1.14,0,0,0,.31.48l.3.23a1.45,1.45,0,0,0,.76.21l.4-.06a1.57,1.57,0,0,0,.66-.38l0,0-.3.23.05,0-.35.15.07,0-.4.05h.08l-.4-.05a.2.2,0,0,1,.11,0l-.36-.15a.39.39,0,0,1,.11.06l-.3-.23a.3.3,0,0,1,.08.08l-.23-.3a.19.19,0,0,1,.05.09l-.15-.36a.31.31,0,0,1,0,.13l-.05-.39a.67.67,0,0,1,0,.2l.05-.4a2.17,2.17,0,0,1-.11.42,1.22,1.22,0,0,0,0,.6,1.09,1.09,0,0,0,.18.55,1.08,1.08,0,0,0,.39.43,1,1,0,0,0,.51.26l.39.06a1.43,1.43,0,0,0,.76-.21l.31-.23a1.57,1.57,0,0,0,.38-.66Z"/><path class="cls-11" d="M180.3,245c-18.14,6.53-35.51,11.65-46,4l-7-4"/><path class="cls-11" d="M65.3,247l-22,6-20,2,7,9C42.71,265.5,54.11,257.19,65.3,247Z"/><path class="cls-11" d="M208.3,276l-2.17,15.22c-.53,3.65-18.68,21.2-29.83,22.78l3,36,3-31c10.78-.37,26-19.46,26-23.55Z"/><polygon class="cls-11" points="42.8 112 75.8 112 88.8 122 111.3 103 145.8 103 113.3 108 93.3 124 74.3 118 42.8 112"/><polyline class="cls-11" points="95.3 237 101.3 281 111.3 281"/><polygon class="cls-11" points="167.3 109 193.3 150 194.3 168 211.3 176 207.3 123 167.3 109"/><path class="cls-12" d="M261.34,218.56c0,.15,0,.29,0,.44l-18,15-2,18L238,253.67,231.3,257l-.12-1.88L229.3,226l-18-43-.11-7.05,0-1.78v0L210.3,119l-33-18-5.25-27L153.3,52l24.44,9,3.56-1,8,5.5,7.84-4.79L198.3,60a265.39,265.39,0,0,1,29,31c6.47,9.76,12.12,19.13,12,28C257.9,147.51,265,182.19,261.34,218.56Z"/></g></g></g></g></svg>