<svg id="tank1" xmlns="http://www.w3.org/2000/svg" viewBox="0 0 315.4 181.4"
           >
            <path
                d="M38.5 71c-6.4 5.3-10.8 7.7-22.2 34h227.4c-16.6-10.8-21.5-21.3-50-32.3l-64.8-.7c-35.6-.4-70.5-.8-77.6-.9L38.5 71zm66.9 73.1c0 15.3-12.4 27.7-27.7 27.7-15.3 0-27.7-12.4-27.7-27.7 0-15.3 12.4-27.7 27.7-27.7s27.7 12.5 27.7 27.7zm73.3-83.9c-.3-4.5-.9-8.5-1.9-12.3L167.2 27c-7.7-11-19.3-19.6-33.4-24.5-6-2.1-8.4-2.4-19.3-2.4s-13.3.3-19.3 2.4c-9.4 3.3-18 7.1-24.2 14.2C58.9 30.6 49.8 68 49.8 68l9.5.3c5.2.2 34.3.4 64.7.5l55.3.2-.6-8.8z"/>
                <g class="tank-cannon">
                    <path transform="rotate(0)" d="M314.8 22.4v29.1l-19.7 6.9-8.1-7.7-110.9-3.2-9.6-20.9 119.3-3.4 10.5-8.4z"/>
                </g>
            <path fill="none" stroke="#2e3436" stroke-width="8"
                d="M27 111.6h217.4s26.2-.4 28.2 11.3c7.9 47.7-52.2 54.4-52.2 54.4H43c-16.1 0-39-12.9-39-29v-13.8c0-16 6.9-22.9 23-22.9h0z" />
                <g class="tank-gear">
                    <path d="M46.1 137.6c0 9.4-7.6 17-17 17s-17-7.6-17-17 7.6-17 17-17 17 7.6 17 17z" />
                    <path
                        d="M246.4 461.2c3.3 0 6 2.7 6 6v12c0 3.3-2.7 6-6 6s-6-2.7-6-6v-12c0-3.3 2.7-6 6-6zM246.4 512.1c3.3 0 6 2.7 6 6v12c0 3.3-2.7 6-6 6s-6-2.7-6-6v-12c0-3.3 2.7-6 6-6z"
                        transform="translate(-115.037 -154.115) scale(.58491)" />
                    <path
                        d="M246.4 461.2c3.3 0 6 2.7 6 6v12c0 3.3-2.7 6-6 6s-6-2.7-6-6v-12c0-3.3 2.7-6 6-6zM246.4 512.1c3.3 0 6 2.7 6 6v12c0 3.3-2.7 6-6 6s-6-2.7-6-6v-12c0-3.3 2.7-6 6-6z"
                        transform="rotate(-44.998 -99.4 353.491) scale(.5849)" />
                <path
                    d="M246.4 461.2c3.3 0 6 2.7 6 6v12c0 3.3-2.7 6-6 6s-6-2.7-6-6v-12c0-3.3 2.7-6 6-6zM246.4 512.1c3.3 0 6 2.7 6 6v12c0 3.3-2.7 6-6 6s-6-2.7-6-6v-12c0-3.3 2.7-6 6-6z"
                    transform="rotate(-90 9.561 272.154) scale(.58491)" />
                <path
                    d="M246.4 461.2c3.3 0 6 2.7 6 6v12c0 3.3-2.7 6-6 6s-6-2.7-6-6v-12c0-3.3 2.7-6 6-6zM246.4 512.1c3.3 0 6 2.7 6 6v12c0 3.3-2.7 6-6 6s-6-2.7-6-6v-12c0-3.3 2.7-6 6-6z"
                    transform="rotate(-135 54.706 238.468) scale(.58491)" />
            </g>
            <path
                d="M163.6 144.8c0 15.3-12.4 27.7-27.7 27.7-15.3 0-27.7-12.4-27.7-27.7 0-15.3 12.4-27.7 27.7-27.7s27.7 12.4 27.7 27.7zm58.3 0c0 15.3-12.4 27.7-27.7 27.7-15.3 0-27.7-12.4-27.7-27.7 0-15.3 12.4-27.7 27.7-27.7s27.7 12.4 27.7 27.7z"
                />
            <g class="tank-gear">
                <path
                    d="M263.7 134.1c0 7.3-5.9 13.1-13.1 13.1-7.3 0-13.1-5.9-13.1-13.1 0-7.3 5.9-13.1 13.1-13.1s13.1 5.8 13.1 13.1z"
                    />
                <path
                    d="M246.4 461.2c3.3 0 6 2.7 6 6v12c0 3.3-2.7 6-6 6s-6-2.7-6-6v-12c0-3.3 2.7-6 6-6zM246.4 512.1c3.3 0 6 2.7 6 6v12c0 3.3-2.7 6-6 6s-6-2.7-6-6v-12c0-3.3 2.7-6 6-6z"
                    transform="translate(139.34 -91.08) scale(.45149)" />
                <path
                    d="M246.4 461.2c3.3 0 6 2.7 6 6v12c0 3.3-2.7 6-6 6s-6-2.7-6-6v-12c0-3.3 2.7-6 6-6zM246.4 512.1c3.3 0 6 2.7 6 6v12c0 3.3-2.7 6-6 6s-6-2.7-6-6v-12c0-3.3 2.7-6 6-6z"
                    transform="rotate(-45 70.986 11.414) scale(.45149)" />
                <g>
                    <path
                        d="M246.4 461.2c3.3 0 6 2.7 6 6v12c0 3.3-2.7 6-6 6s-6-2.7-6-6v-12c0-3.3 2.7-6 6-6zM246.4 512.1c3.3 0 6 2.7 6 6v12c0 3.3-2.7 6-6 6s-6-2.7-6-6v-12c0-3.3 2.7-6 6-6z"
                        transform="rotate(-90 135.389 109.946) scale(.45149)" />
                </g>
                <g>
                    <path
                        d="M246.4 461.2c3.3 0 6 2.7 6 6v12c0 3.3-2.7 6-6 6s-6-2.7-6-6v-12c0-3.3 2.7-6 6-6zM246.4 512.1c3.3 0 6 2.7 6 6v12c0 3.3-2.7 6-6 6s-6-2.7-6-6v-12c0-3.3 2.7-6 6-6z"
                        transform="rotate(-135 162.07 150.765) scale(.45149)" />
                </g>
            </g>
        </svg>